<svg xmlns="http://www.w3.org/2000/svg" width="64" height="64" viewBox="0 0 64 64">
  <defs>
    <linearGradient id="g" x1="0" y1="0" x2="1" y2="1">
      <stop offset="0" stop-color="#00FFA3"/>
      <stop offset="1" stop-color="#DC1FFF"/>
    </linearGradient>
  </defs>
  <rect width="64" height="64" rx="32" fill="url(#g)"/>
  <g fill="#0B0B0F" opacity="0.85">
    <path d="M18 20h32c2 0 3 2 1.7 3.4l-4 4A4 4 0 0 1 45 29H13c-2 0-3-2-1.7-3.4l4-4A4 4 0 0 1 18 20Z"/>
    <path d="M18 30h32c2 0 3 2 1.7 3.4l-4 4A4 4 0 0 1 45 39H13c-2 0-3-2-1.7-3.4l4-4A4 4 0 0 1 18 30Z"/>
    <path d="M18 40h32c2 0 3 2 1.7 3.4l-4 4A4 4 0 0 1 45 49H13c-2 0-3-2-1.7-3.4l4-4A4 4 0 0 1 18 40Z"/>
  </g>
</svg>
